<svg id="Layer_1" data-name="Layer 1" xmlns="http://www.w3.org/2000/svg" xmlns:xlink="http://www.w3.org/1999/xlink" viewBox="0 0 70.87 70.87"><defs><style>.cls-1{fill:none;}.cls-2{clip-path:url(#clip-path);}</style><clipPath id="clip-path"><rect class="cls-1" x="4.01" width="62.85" height="70.91"/></clipPath></defs><title>icons-collected</title><g class="cls-2"><path d="M31.88,54.44a4.68,4.68,0,0,1-1.54.87,5.53,5.53,0,0,1-1.85.31A4.32,4.32,0,0,1,25,54.21a5.7,5.7,0,0,1-1.26-3.64H21.07a8.6,8.6,0,0,0,.49,3.17,6.34,6.34,0,0,0,1.49,2.35,6.25,6.25,0,0,0,2.36,1.44,9.19,9.19,0,0,0,3.08.49,10,10,0,0,0,3-.44,7,7,0,0,0,2.43-1.31,6.24,6.24,0,0,0,1.65-2.19,7,7,0,0,0,.61-3,6.43,6.43,0,0,0-1-3.59,4.63,4.63,0,0,0-3-2v-.07a5.66,5.66,0,0,0,2.2-1.81,4.51,4.51,0,0,0,.88-2.75,6.72,6.72,0,0,0-.52-2.75,5.1,5.1,0,0,0-1.43-1.91,6.22,6.22,0,0,0-2.15-1.12,9.34,9.34,0,0,0-2.69-.37,7.31,7.31,0,0,0-2.94.55,5.81,5.81,0,0,0-2.12,1.52,6.79,6.79,0,0,0-1.3,2.33,10.7,10.7,0,0,0-.52,3h2.67a7,7,0,0,1,.25-1.91,4.61,4.61,0,0,1,.77-1.59,3.8,3.8,0,0,1,1.32-1.08,4.1,4.1,0,0,1,1.87-.4,4.33,4.33,0,0,1,2.83.92,3.37,3.37,0,0,1,1.13,2.77A3.66,3.66,0,0,1,32,42.45a3.47,3.47,0,0,1-.93,1.18,4.1,4.1,0,0,1-1.35.71,5.44,5.44,0,0,1-1.62.24h-.88l-.28,0v2.33a12.5,12.5,0,0,1,1.6-.1,6.15,6.15,0,0,1,1.87.27,4,4,0,0,1,1.49.84,4.19,4.19,0,0,1,1,1.39,4.51,4.51,0,0,1,.38,1.89A4.3,4.3,0,0,1,32.93,53a4.19,4.19,0,0,1-1.05,1.39m13.61,3.22h2.67V34.71h-2a5.16,5.16,0,0,1-.82,2.14,4.46,4.46,0,0,1-1.46,1.33,5.91,5.91,0,0,1-1.93.66,13.15,13.15,0,0,1-2.2.18v2.2h5.78ZM64,20H6.86V11.43A2.86,2.86,0,0,1,9.72,8.57h5.71v4.28a1.43,1.43,0,1,0,2.86,0V8.57H52.57v4.28a1.43,1.43,0,1,0,2.86,0V8.57h5.71A2.86,2.86,0,0,1,64,11.43Zm0,45.2a2.86,2.86,0,0,1-2.86,2.86H9.72A2.86,2.86,0,0,1,6.86,65.2V22.86H64ZM61.14,5.71H55.43V1.43a1.43,1.43,0,1,0-2.86,0V5.71H18.29V1.43a1.43,1.43,0,1,0-2.86,0V5.71H9.72A5.71,5.71,0,0,0,4,11.43V65.2a5.71,5.71,0,0,0,5.71,5.71H61.14a5.71,5.71,0,0,0,5.71-5.71V11.43a5.71,5.71,0,0,0-5.71-5.71"/></g></svg>