<svg id="Layer_1" data-name="Layer 1" xmlns="http://www.w3.org/2000/svg" xmlns:xlink="http://www.w3.org/1999/xlink" viewBox="0 0 70.87 70.87"><defs><style>.cls-1{fill:none;}.cls-2{clip-path:url(#clip-path);}.cls-3{fill:#1d1d1b;}</style><clipPath id="clip-path"><rect class="cls-1" x="4.41" y="0.44" width="62.04" height="69.99"/></clipPath></defs><title>icons-collected</title><g class="cls-2"><path class="cls-3" d="M63.63,20.18H7.23V11.72A2.82,2.82,0,0,1,10.05,8.9h5.64v4.23a1.41,1.41,0,1,0,2.82,0V8.9H52.35v4.23a1.41,1.41,0,1,0,2.82,0V8.9h5.64a2.82,2.82,0,0,1,2.82,2.82Zm0,44.61a2.82,2.82,0,0,1-2.82,2.82H10.05a2.82,2.82,0,0,1-2.82-2.82V23h56.4ZM60.81,6.08H55.17V1.85a1.41,1.41,0,1,0-2.82,0V6.08H18.51V1.85a1.41,1.41,0,1,0-2.82,0V6.08H10.05a5.64,5.64,0,0,0-5.64,5.64V64.79a5.64,5.64,0,0,0,5.64,5.64H60.81a5.64,5.64,0,0,0,5.64-5.64V11.72a5.64,5.64,0,0,0-5.64-5.64"/></g><rect class="cls-3" x="13.96" y="27.44" width="8.4" height="8.4"/><rect class="cls-3" x="13.96" y="40.04" width="8.4" height="8.4"/><rect class="cls-3" x="13.96" y="52.64" width="8.4" height="8.4"/><rect class="cls-3" x="47.55" y="27.44" width="8.4" height="8.4"/><rect class="cls-3" x="47.55" y="40.04" width="8.4" height="8.4"/><rect class="cls-3" x="47.55" y="52.64" width="8.4" height="8.4"/><rect class="cls-3" x="30.76" y="27.44" width="8.4" height="8.4"/><rect class="cls-3" x="30.76" y="40.04" width="8.4" height="8.4"/><rect class="cls-3" x="30.76" y="52.64" width="8.4" height="8.4"/></svg>