<svg id="Layer_1" data-name="Layer 1"
     xmlns="http://www.w3.org/2000/svg"
     xmlns:xlink="http://www.w3.org/1999/xlink"
     viewBox="0 0 70.87 70.87">
  <defs>
    <style>.cls-1{fill:none;}.cls-2{clip-path:url(#clip-path);}.cls-3{fill:#1d1d1b;}
    </style>
    <clipPath id="clip-path">
      <rect class="cls-1" x="6.45" width="57.96" height="70.84"/>
    </clipPath>
  </defs>
  <title>icons-collected</title>
  <g class="cls-2">
    <path class="cls-3" d="M45.09,19.32V3.22H46.7l14.49,16.1ZM61.19,64.4A3.22,3.22,0,0,1,58,67.62H12.89A3.22,3.22,0,0,1,9.67,64.4v-58a3.22,3.22,0,0,1,3.22-3.22h29v16.1a3.22,3.22,0,0,0,3.22,3.22h16.1ZM48.31,0H12.89A6.44,6.44,0,0,0,6.45,6.44v58a6.44,6.44,0,0,0,6.44,6.44H58a6.44,6.44,0,0,0,6.44-6.44V17.71Z"/>
  </g>
</svg>
