<?xml version="1.0" encoding="UTF-8"?><svg id="Layer_1" xmlns="http://www.w3.org/2000/svg" viewBox="0 0 208 26.28"><defs><style>.cls-1{fill:#f8981d;}.cls-2{fill:#f78c1e;}.cls-3{fill:#fff;}.cls-4{fill:#ffd95c;}.cls-5{opacity:.8;}</style></defs><polygon class="cls-4" points="20.63 18.65 20.63 2.65 4.63 2.65 20.63 18.65"/><polygon class="cls-2" points="4.63 2.65 .63 6.65 .63 6.65 8.63 6.65 4.63 2.65"/><polygon class="cls-2" points="16.63 14.65 16.63 22.65 20.63 18.65 16.63 14.65"/><polygon class="cls-2" points=".63 22.65 16.63 22.65 .63 6.65 .63 22.65"/><g><path class="cls-1" d="M26.47,5.67h3.93c3.09,0,5.17,1.03,5.17,4.05s-2.06,4.26-5.08,4.26h-2.27v5.46h-1.74V5.67Zm3.8,6.89c2.39,0,3.55-.88,3.55-2.83s-1.22-2.65-3.63-2.65h-1.97v5.48h2.06Z"/><path class="cls-1" d="M36.93,14.36c0-3.42,2.23-5.38,4.72-5.38s4.72,1.95,4.72,5.38-2.23,5.33-4.72,5.33-4.72-1.95-4.72-5.33Zm7.66,0c0-2.35-1.18-3.95-2.94-3.95s-2.94,1.6-2.94,3.95,1.2,3.91,2.94,3.91,2.94-1.57,2.94-3.91Z"/><path class="cls-1" d="M49.07,9.24h1.43l.15,1.85h.06c.69-1.28,1.74-2.1,2.9-2.1,.44,0,.76,.06,1.09,.21l-.34,1.51c-.34-.1-.57-.17-.99-.17-.86,0-1.89,.63-2.58,2.35v6.55h-1.72V9.24Z"/><path class="cls-1" d="M56.65,16.29v-5.65h-1.51v-1.3l1.6-.1,.21-2.86h1.45v2.86h2.75v1.41h-2.75v5.67c0,1.26,.4,1.97,1.57,1.97,.36,0,.82-.15,1.15-.27l.34,1.3c-.57,.19-1.26,.38-1.89,.38-2.18,0-2.92-1.39-2.92-3.4Z"/><path class="cls-1" d="M63.75,10.65h-1.39v-1.3l1.39-.1v-1.62c0-2.08,.94-3.38,2.98-3.38,.63,0,1.24,.15,1.7,.34l-.38,1.32c-.38-.17-.78-.25-1.15-.25-.97,0-1.43,.67-1.43,1.97v1.62h2.16v1.41h-2.16v8.8h-1.72V10.65Z"/><path class="cls-1" d="M68.62,14.36c0-3.42,2.23-5.38,4.72-5.38s4.72,1.95,4.72,5.38-2.23,5.33-4.72,5.33-4.72-1.95-4.72-5.33Zm7.66,0c0-2.35-1.18-3.95-2.94-3.95s-2.94,1.6-2.94,3.95,1.2,3.91,2.94,3.91,2.94-1.57,2.94-3.91Z"/><path class="cls-1" d="M80.76,17.39V4.49h1.72v13.02c0,.55,.23,.76,.48,.76,.1,0,.19,0,.38-.04l.23,1.3c-.23,.11-.52,.17-.99,.17-1.3,0-1.83-.82-1.83-2.31Z"/><path class="cls-1" d="M85.8,6.03c0-.67,.52-1.11,1.2-1.11s1.2,.44,1.2,1.11-.52,1.11-1.2,1.11-1.2-.46-1.2-1.11Zm.31,3.21h1.72v10.2h-1.72V9.24Z"/><path class="cls-1" d="M90.52,14.36c0-3.42,2.23-5.38,4.72-5.38s4.72,1.95,4.72,5.38-2.23,5.33-4.72,5.33-4.72-1.95-4.72-5.33Zm7.66,0c0-2.35-1.18-3.95-2.94-3.95s-2.94,1.6-2.94,3.95,1.2,3.91,2.94,3.91,2.94-1.57,2.94-3.91Z"/></g><g class="cls-5"><path class="cls-3" d="M107.01,5.67h4.09c2.79,0,4.72,.94,4.72,3.36,0,1.36-.71,2.58-2.02,3v.08c1.66,.31,2.81,1.41,2.81,3.3,0,2.71-2.14,4.03-5.23,4.03h-4.39V5.67Zm3.78,5.86c2.35,0,3.32-.86,3.32-2.27,0-1.6-1.09-2.21-3.23-2.21h-2.12v4.47h2.04Zm.36,6.53c2.37,0,3.76-.86,3.76-2.71,0-1.7-1.34-2.48-3.76-2.48h-2.39v5.19h2.39Z"/><path class="cls-3" d="M118.56,16.79c0-2.23,1.91-3.34,6.26-3.82,0-1.3-.42-2.56-2.1-2.56-1.18,0-2.25,.55-3.04,1.09l-.67-1.2c.94-.61,2.37-1.32,4.01-1.32,2.5,0,3.55,1.66,3.55,4.2v6.26h-1.43l-.15-1.22h-.06c-.97,.8-2.1,1.47-3.38,1.47-1.7,0-2.98-1.07-2.98-2.9Zm6.26,.15v-2.83c-3.4,.42-4.58,1.26-4.58,2.56,0,1.16,.8,1.64,1.81,1.64s1.79-.48,2.77-1.37Z"/><path class="cls-3" d="M129.02,14.36c0-3.42,2.29-5.38,4.91-5.38,1.34,0,2.27,.55,2.98,1.2l-.88,1.13c-.59-.52-1.22-.9-2.04-.9-1.85,0-3.19,1.6-3.19,3.95s1.28,3.91,3.15,3.91c.94,0,1.76-.46,2.39-1.03l.76,1.15c-.92,.82-2.08,1.3-3.3,1.3-2.71,0-4.79-1.95-4.79-5.33Z"/><path class="cls-3" d="M139.35,4.49h1.7V14.61h.06l4.35-5.38h1.91l-3.42,4.09,3.88,6.11h-1.89l-2.98-4.91-1.91,2.23v2.69h-1.7V4.49Z"/><path class="cls-3" d="M148.61,14.36c0-3.34,2.25-5.38,4.58-5.38,2.6,0,4.07,1.87,4.07,4.79,0,.36-.02,.73-.06,.99h-6.89c.13,2.16,1.45,3.55,3.4,3.55,.96,0,1.78-.31,2.54-.8l.61,1.13c-.88,.57-1.97,1.05-3.36,1.05-2.73,0-4.89-2-4.89-5.33Zm7.14-.84c0-2.06-.92-3.17-2.52-3.17-1.43,0-2.73,1.15-2.94,3.17h5.46Z"/><path class="cls-3" d="M159.78,9.24h1.43l.15,1.47h.06c.97-.97,2.02-1.72,3.42-1.72,2.14,0,3.11,1.39,3.11,3.99v6.47h-1.72v-6.24c0-1.91-.59-2.73-1.93-2.73-1.05,0-1.76,.55-2.79,1.58v7.39h-1.72V9.24Z"/><path class="cls-3" d="M170.53,14.36c0-3.32,2.1-5.38,4.43-5.38,1.18,0,1.95,.44,2.86,1.18l-.08-1.74v-3.93h1.74v14.95h-1.43l-.15-1.2h-.06c-.8,.78-1.89,1.45-3.09,1.45-2.56,0-4.22-1.93-4.22-5.33Zm7.2,2.48v-5.33c-.86-.78-1.64-1.07-2.48-1.07-1.64,0-2.94,1.57-2.94,3.9s1.03,3.91,2.81,3.91c.94,0,1.76-.46,2.6-1.41Z"/></g></svg>